<svg width="48" height="48" viewBox="0 0 48 48" fill="none" xmlns="http://www.w3.org/2000/svg">
<circle cx="24" cy="24" r="24" fill="#D2D3D9"/>
<path fill-rule="evenodd" clip-rule="evenodd" d="M27.2 20.1104C27.2 18.0251 26.4 15.8999 24 15.8999C21.6 15.8999 20.8 17.9862 20.8 20.1104C20.8 22.2347 22.218 23.8999 24 23.8999C25.782 23.8999 27.2 22.1957 27.2 20.1104ZM32 28.6379C32 27.6658 31.538 26.7578 30.6239 26.4271C29.4144 25.9896 27.3193 25.4999 24 25.4999C20.6807 25.4999 18.5856 25.9896 17.3761 26.4271C16.462 26.7578 16 27.6658 16 28.6379V28.9285C16.0524 29.724 16.4018 30.199 16.9369 30.7759C18.0628 31.9898 20.4371 33.4999 24 33.4999C27.9043 33.4999 30.1998 31.8944 31.2073 30.69C31.649 30.1621 31.9542 29.6234 32 28.9285V28.6379Z" fill="white"/>
</svg>
