<svg width="45" height="14" viewBox="0 0 45 14" fill="none" xmlns="http://www.w3.org/2000/svg">
<g clip-path="url(#clip0_51_2704)">
<rect width="50" height="14" rx="7" fill="#63AAFD" fill-opacity="0.4"/>
<ellipse cx="7.14642" cy="7.07237" rx="6.14642" ry="6.07237" fill="#63AAFD"/>
<path d="M8.8457 5.46191C9.24919 5.46191 9.57694 5.78895 9.57715 6.19238V9.11523C9.57715 9.51885 9.24932 9.84668 8.8457 9.84668H3.73047C3.32701 9.84649 3 9.51873 3 9.11523V6.19238C3.00021 5.78906 3.32714 5.4621 3.73047 5.46191H8.8457ZM3.54785 9.29883H4.64453L3.54785 8.20215V9.29883ZM6.19727 6.74121C5.74336 6.74121 5.3752 7.10864 5.375 7.5625C5.375 8.01652 5.74324 8.38477 6.19727 8.38477C6.65118 8.38464 7.01953 8.01645 7.01953 7.5625C7.01933 7.10872 6.65106 6.74134 6.19727 6.74121ZM8.8457 7.28906V6.19238H7.75L8.8457 7.28906Z" fill="#212123"/>
<path d="M10.3069 4C10.7104 4 11.0381 4.32703 11.0383 4.73047V8.01953C11.0381 8.42273 10.7111 8.74871 10.3079 8.74902V5.46191C10.3078 5.05838 9.97998 4.73145 9.57642 4.73145H3.73071V4.73047C3.73092 4.32713 4.05784 4.00017 4.46118 4H10.3069Z" fill="#212123"/>
<path d="M14.3906 10.8181L16.9346 3.77222H17.8184V5.00757H17.4863L15.543 10.8181H14.3906ZM15.6162 8.91382L15.9238 8.03491H19.1318L19.4395 8.91382H15.6162ZM19.5078 10.8181L17.5693 5.00757V3.77222H18.1211L20.6602 10.8181H19.5078ZM21.8564 10.8181V5.51538H24.2588C24.7796 5.51538 25.1849 5.63908 25.4746 5.88647C25.7643 6.13387 25.9092 6.46427 25.9092 6.87769V6.88745C25.9092 7.15763 25.8245 7.40177 25.6553 7.61987C25.486 7.83472 25.2712 7.96818 25.0107 8.02026V8.09839C25.2419 8.12769 25.4421 8.19767 25.6113 8.30835C25.7806 8.41577 25.9108 8.55412 26.002 8.72339C26.0964 8.89266 26.1436 9.08309 26.1436 9.29468V9.30444C26.1436 9.60718 26.0687 9.87248 25.9189 10.1003C25.7725 10.325 25.5592 10.5007 25.2793 10.6277C25.0026 10.7546 24.6706 10.8181 24.2832 10.8181H21.8564ZM22.9111 10.0369H24.1416C24.4476 10.0369 24.6771 9.97013 24.8301 9.83667C24.9831 9.69995 25.0596 9.50952 25.0596 9.26538V9.25562C25.0596 8.99845 24.9717 8.80802 24.7959 8.68433C24.6234 8.56063 24.3613 8.49878 24.0098 8.49878H22.9111V10.0369ZM22.9111 7.73218H23.9268C24.2425 7.73218 24.4769 7.67033 24.6299 7.54663C24.7829 7.42293 24.8594 7.24552 24.8594 7.0144V7.00464C24.8594 6.79305 24.7926 6.62215 24.6592 6.49194C24.529 6.36174 24.3223 6.29663 24.0391 6.29663H22.9111V7.73218ZM31.1533 5.51538V6.35522H29.4834V10.8181H28.4238V6.35522H26.7539V5.51538H31.1533ZM34.4102 10.9207C33.8926 10.9207 33.445 10.81 33.0674 10.5886C32.693 10.3673 32.4049 10.0515 32.2031 9.64136C32.0013 9.22795 31.9004 8.73804 31.9004 8.17163V8.16187C31.9004 7.5922 32.0013 7.10229 32.2031 6.69214C32.4082 6.28198 32.6979 5.96623 33.0723 5.74487C33.4499 5.52352 33.8958 5.41284 34.4102 5.41284C34.9277 5.41284 35.3737 5.52352 35.748 5.74487C36.1224 5.96297 36.4105 6.27873 36.6123 6.69214C36.8174 7.10229 36.9199 7.5922 36.9199 8.16187V8.17163C36.9199 8.73804 36.8174 9.22795 36.6123 9.64136C36.4105 10.0515 36.1224 10.3673 35.748 10.5886C35.377 10.81 34.931 10.9207 34.4102 10.9207ZM34.4102 10.032C34.7129 10.032 34.9701 9.95874 35.1816 9.81226C35.3932 9.66252 35.5544 9.4493 35.665 9.17261C35.7757 8.89591 35.8311 8.56226 35.8311 8.17163V8.16187C35.8311 7.76799 35.7757 7.4327 35.665 7.15601C35.5544 6.87931 35.3932 6.66772 35.1816 6.52124C34.9701 6.3715 34.7129 6.29663 34.4102 6.29663C34.1074 6.29663 33.8503 6.3715 33.6387 6.52124C33.4271 6.66772 33.2643 6.87931 33.1504 7.15601C33.0397 7.4327 32.9844 7.76799 32.9844 8.16187V8.17163C32.9844 8.56226 33.0397 8.89591 33.1504 9.17261C33.2643 9.4493 33.4271 9.66252 33.6387 9.81226C33.8503 9.95874 34.1074 10.032 34.4102 10.032ZM39.6055 8.47437H39.3369V10.8181H38.2725V5.51538H39.3369V7.68335H39.6006L41.4756 5.51538H42.7158L40.3916 8.06909V7.89331L42.8135 10.8181H41.5L39.6055 8.47437ZM43.9316 12.5857V5.51538H44.9912V6.35034H45.0742C45.1751 6.15503 45.3053 5.98901 45.4648 5.85229C45.6276 5.71558 45.8132 5.60978 46.0215 5.53491C46.2298 5.46004 46.4577 5.42261 46.7051 5.42261C47.151 5.42261 47.5384 5.53654 47.8672 5.7644C48.196 5.98901 48.4499 6.3064 48.6289 6.71655C48.8112 7.12345 48.9023 7.60522 48.9023 8.16187V8.17163C48.9023 8.73153 48.8128 9.21655 48.6338 9.62671C48.4548 10.0336 48.2008 10.3494 47.8721 10.574C47.5433 10.7953 47.1543 10.906 46.7051 10.906C46.4609 10.906 46.2331 10.8686 46.0215 10.7937C45.8099 10.7156 45.6227 10.6082 45.46 10.4714C45.2972 10.3347 45.1686 10.1703 45.0742 9.97827H44.9912V12.5857H43.9316ZM46.4023 9.9978C46.6986 9.9978 46.9525 9.92456 47.1641 9.77808C47.3757 9.63159 47.5368 9.42163 47.6475 9.14819C47.7614 8.87476 47.8184 8.54924 47.8184 8.17163V8.16187C47.8184 7.78101 47.7614 7.45386 47.6475 7.18042C47.5368 6.90698 47.3757 6.69702 47.1641 6.55054C46.9525 6.40405 46.6986 6.33081 46.4023 6.33081C46.1094 6.33081 45.8555 6.40568 45.6406 6.55542C45.4258 6.7019 45.2614 6.91187 45.1475 7.1853C45.0335 7.45549 44.9766 7.78101 44.9766 8.16187V8.17163C44.9766 8.54598 45.0335 8.86987 45.1475 9.14331C45.2614 9.41675 45.4258 9.62834 45.6406 9.77808C45.8555 9.92456 46.1094 9.9978 46.4023 9.9978ZM52.4961 10.9207C51.9785 10.9207 51.5342 10.81 51.1631 10.5886C50.792 10.364 50.5055 10.0466 50.3037 9.63647C50.1051 9.22632 50.0059 8.74129 50.0059 8.1814V8.17651C50.0059 7.62313 50.1051 7.13973 50.3037 6.72632C50.5055 6.31291 50.7887 5.99064 51.1533 5.75952C51.5212 5.5284 51.9508 5.41284 52.4424 5.41284C52.9372 5.41284 53.362 5.52352 53.7168 5.74487C54.0749 5.96623 54.3499 6.2771 54.542 6.67749C54.734 7.07463 54.8301 7.54012 54.8301 8.07397V8.44507H50.543V7.68823H54.3027L53.7949 8.39136V7.96655C53.7949 7.58895 53.7363 7.27645 53.6191 7.02905C53.5052 6.7784 53.3473 6.59123 53.1455 6.46753C52.9437 6.34383 52.7109 6.28198 52.4473 6.28198C52.1836 6.28198 51.9476 6.34709 51.7393 6.47729C51.5342 6.60425 51.3714 6.79305 51.251 7.0437C51.1338 7.29435 51.0752 7.60197 51.0752 7.96655V8.39136C51.0752 8.73966 51.1338 9.03752 51.251 9.28491C51.3682 9.53231 51.5342 9.72111 51.749 9.85132C51.9671 9.98153 52.2243 10.0466 52.5205 10.0466C52.7484 10.0466 52.9437 10.0157 53.1064 9.95386C53.2725 9.88875 53.4076 9.809 53.5117 9.7146C53.6191 9.6202 53.6924 9.52743 53.7314 9.43628L53.751 9.39722H54.7764L54.7666 9.44116C54.721 9.61694 54.6413 9.79272 54.5273 9.96851C54.4134 10.141 54.262 10.2989 54.0732 10.4421C53.8877 10.5854 53.6631 10.7009 53.3994 10.7888C53.139 10.8767 52.8379 10.9207 52.4961 10.9207ZM56.4854 12.2097H55.5088V9.97339H55.9385C56.1338 9.84969 56.2786 9.64136 56.373 9.34839C56.4707 9.05542 56.5309 8.7299 56.5537 8.37183L56.749 5.51538H60.582V9.97339H61.4121V12.2097H60.4355V10.8181H56.4854V12.2097ZM59.5225 9.97339V6.36011H57.667L57.5156 8.41577C57.4961 8.71851 57.4521 8.99845 57.3838 9.25562C57.3154 9.51278 57.221 9.72437 57.1006 9.89038V9.97339H59.5225ZM62.4717 10.8181V5.51538H63.5264V9.23608H64.0781L63.3604 9.63647L66.0117 5.51538H67.0664V10.8181H66.0117V7.08276H65.46L66.1777 6.67749L63.5264 10.8181H62.4717ZM72.6475 5.51538V6.35522H70.9775V10.8181H69.918V6.35522H68.248V5.51538H72.6475Z" fill="url(#paint0_linear_51_2704)"/>
</g>
<defs>
<linearGradient id="paint0_linear_51_2704" x1="14" y1="7.31812" x2="75" y2="7.31812" gradientUnits="userSpaceOnUse">
<stop stop-color="#63AAFD"/>
<stop offset="0.407274" stop-color="#63AAFD"/>
<stop offset="0.486941" stop-color="#63AAFD" stop-opacity="0"/>
</linearGradient>
<clipPath id="clip0_51_2704">
<rect width="45" height="14" rx="7" fill="white"/>
</clipPath>
</defs>
</svg>
