<svg width="12" height="6" viewBox="0 0 12 6" fill="none" xmlns="http://www.w3.org/2000/svg">
<path d="M0 3.63672V3.11328H4.94141V3.63672H0ZM2.21094 5.39844V1.35156H2.73438V5.39844H2.21094ZM6.125 5.74219V5.33203L9.16797 3.27344C9.47786 3.04948 9.72266 2.85417 9.90234 2.6875C10.0846 2.51823 10.2135 2.35807 10.2891 2.20703C10.3646 2.05599 10.4023 1.89323 10.4023 1.71875V1.71094C10.4023 1.46875 10.332 1.25781 10.1914 1.07812C10.0508 0.895833 9.84896 0.753906 9.58594 0.652344C9.32552 0.550781 9.01302 0.5 8.64844 0.5C8.27865 0.5 7.95573 0.553385 7.67969 0.660156C7.40625 0.766927 7.1875 0.919271 7.02344 1.11719C6.85938 1.3151 6.75911 1.55339 6.72266 1.83203L6.71484 1.87109H6.14062L6.14453 1.84375C6.17839 1.46615 6.30208 1.13932 6.51562 0.863281C6.72917 0.58724 7.01823 0.375 7.38281 0.226562C7.7474 0.0755208 8.17318 0 8.66016 0C9.13932 0 9.55339 0.0703125 9.90234 0.210938C10.2539 0.348958 10.5234 0.544271 10.7109 0.796875C10.901 1.04948 10.9961 1.34766 10.9961 1.69141V1.69922C10.9961 1.92578 10.9492 2.13802 10.8555 2.33594C10.7643 2.53385 10.6094 2.73698 10.3906 2.94531C10.1745 3.15365 9.87891 3.39062 9.50391 3.65625L7 5.33594L7.19141 4.98828V5.44531L6.97266 5.23438H11.1953V5.74219H6.125Z" fill="#454545"/>
</svg>
