<svg width="45" height="14" viewBox="0 0 45 14" fill="none" xmlns="http://www.w3.org/2000/svg">
<g clip-path="url(#clip0_51_2717)">
<rect width="50" height="14" rx="7" fill="#EF5A24" fill-opacity="0.4"/>
<path d="M6.75488 10.1172V9.375C6.12337 9.35547 5.56999 9.22852 5.09473 8.99414C4.62272 8.75651 4.25326 8.42448 3.98633 7.99805C3.72266 7.56836 3.59082 7.05566 3.59082 6.45996V6.4502C3.59082 5.85449 3.72428 5.34342 3.99121 4.91699C4.25814 4.49056 4.62923 4.16016 5.10449 3.92578C5.57975 3.68815 6.12988 3.55957 6.75488 3.54004V2.83691H7.83887V3.54004C8.47038 3.55632 9.02214 3.68327 9.49414 3.9209C9.9694 4.15853 10.3389 4.49219 10.6025 4.92188C10.8662 5.34831 10.998 5.85938 10.998 6.45508V6.46484C10.998 7.0638 10.8646 7.5765 10.5977 8.00293C10.3307 8.42936 9.95964 8.75977 9.48438 8.99414C9.01237 9.22526 8.46387 9.35221 7.83887 9.375V10.1172H6.75488ZM6.75977 8.44238V4.47266C6.34635 4.48893 5.98503 4.57845 5.67578 4.74121C5.36979 4.90397 5.13216 5.13021 4.96289 5.41992C4.79688 5.70964 4.71387 6.05306 4.71387 6.4502V6.45996C4.71387 6.85384 4.79688 7.19727 4.96289 7.49023C5.13216 7.7832 5.36979 8.01107 5.67578 8.17383C5.98177 8.33659 6.3431 8.42611 6.75977 8.44238ZM7.83398 8.44238C8.24414 8.42285 8.60221 8.33333 8.9082 8.17383C9.21419 8.01107 9.45182 7.78483 9.62109 7.49512C9.79036 7.2054 9.875 6.86198 9.875 6.46484V6.45508C9.875 6.05794 9.79199 5.71452 9.62598 5.4248C9.45996 5.13184 9.22396 4.90397 8.91797 4.74121C8.61523 4.5752 8.25391 4.48568 7.83398 4.47266V8.44238ZM14.6309 10.1025C14.1133 10.1025 13.6689 9.99186 13.2979 9.77051C12.9268 9.5459 12.6403 9.22852 12.4385 8.81836C12.2399 8.4082 12.1406 7.92318 12.1406 7.36328V7.3584C12.1406 6.80501 12.2399 6.32161 12.4385 5.9082C12.6403 5.49479 12.9235 5.17253 13.2881 4.94141C13.6559 4.71029 14.0856 4.59473 14.5771 4.59473C15.0719 4.59473 15.4967 4.7054 15.8516 4.92676C16.2096 5.14811 16.4847 5.45898 16.6768 5.85938C16.8688 6.25651 16.9648 6.72201 16.9648 7.25586V7.62695H12.6777V6.87012H16.4375L15.9297 7.57324V7.14844C15.9297 6.77083 15.8711 6.45833 15.7539 6.21094C15.64 5.96029 15.4821 5.77311 15.2803 5.64941C15.0785 5.52572 14.8457 5.46387 14.582 5.46387C14.3184 5.46387 14.0824 5.52897 13.874 5.65918C13.6689 5.78613 13.5062 5.97493 13.3857 6.22559C13.2686 6.47624 13.21 6.78385 13.21 7.14844V7.57324C13.21 7.92155 13.2686 8.2194 13.3857 8.4668C13.5029 8.71419 13.6689 8.90299 13.8838 9.0332C14.1019 9.16341 14.359 9.22852 14.6553 9.22852C14.8831 9.22852 15.0785 9.19759 15.2412 9.13574C15.4072 9.07064 15.5423 8.99089 15.6465 8.89648C15.7539 8.80208 15.8271 8.70931 15.8662 8.61816L15.8857 8.5791H16.9111L16.9014 8.62305C16.8558 8.79883 16.776 8.97461 16.6621 9.15039C16.5482 9.32292 16.3968 9.48079 16.208 9.62402C16.0225 9.76725 15.7979 9.88281 15.5342 9.9707C15.2738 10.0586 14.9727 10.1025 14.6309 10.1025ZM20.5537 10.1025C20.0394 10.1025 19.5951 9.99186 19.2207 9.77051C18.8496 9.5459 18.5632 9.22689 18.3613 8.81348C18.1595 8.40007 18.0586 7.9069 18.0586 7.33398V7.32422C18.0586 6.76107 18.1579 6.27604 18.3564 5.86914C18.5583 5.46224 18.8447 5.14811 19.2158 4.92676C19.5902 4.7054 20.0345 4.59473 20.5488 4.59473C20.9948 4.59473 21.3773 4.67285 21.6963 4.8291C22.0186 4.9821 22.2741 5.19368 22.4629 5.46387C22.6549 5.73079 22.7754 6.03516 22.8242 6.37695L22.8291 6.40137H21.8086L21.8037 6.3916C21.7451 6.13118 21.61 5.91471 21.3984 5.74219C21.1868 5.56641 20.9053 5.47852 20.5537 5.47852C20.2607 5.47852 20.0085 5.55339 19.7969 5.70312C19.5853 5.84961 19.4225 6.0612 19.3086 6.33789C19.1979 6.61458 19.1426 6.94336 19.1426 7.32422V7.33398C19.1426 7.72461 19.1995 8.0599 19.3135 8.33984C19.4274 8.61979 19.5902 8.83626 19.8018 8.98926C20.0133 9.139 20.264 9.21387 20.5537 9.21387C20.8857 9.21387 21.1543 9.14062 21.3594 8.99414C21.5677 8.84766 21.7142 8.63118 21.7988 8.34473L21.8086 8.32031L22.8242 8.31543L22.8145 8.35938C22.7526 8.70443 22.6273 9.00716 22.4385 9.26758C22.2497 9.52799 21.9974 9.73307 21.6816 9.88281C21.3691 10.0293 20.9932 10.1025 20.5537 10.1025ZM27.8584 4.69727V5.53711H26.1885V10H25.1289V5.53711H23.459V4.69727H27.8584ZM29.04 10V4.69727H30.0947V8.41797H30.6465L29.9287 8.81836L32.5801 4.69727H33.6348V10H32.5801V6.26465H32.0283L32.7461 5.85938L30.0947 10H29.04ZM35.251 10V4.69727H37.6533C38.1742 4.69727 38.5794 4.82096 38.8691 5.06836C39.1589 5.31576 39.3037 5.64616 39.3037 6.05957V6.06934C39.3037 6.33952 39.2191 6.58366 39.0498 6.80176C38.8805 7.0166 38.6657 7.15007 38.4053 7.20215V7.28027C38.6364 7.30957 38.8366 7.37956 39.0059 7.49023C39.1751 7.59766 39.3053 7.736 39.3965 7.90527C39.4909 8.07454 39.5381 8.26497 39.5381 8.47656V8.48633C39.5381 8.78906 39.4632 9.05436 39.3135 9.28223C39.167 9.50684 38.9538 9.68262 38.6738 9.80957C38.3971 9.93652 38.0651 10 37.6777 10H35.251ZM36.3057 9.21875H37.5361C37.8421 9.21875 38.0716 9.15202 38.2246 9.01855C38.3776 8.88184 38.4541 8.69141 38.4541 8.44727V8.4375C38.4541 8.18034 38.3662 7.98991 38.1904 7.86621C38.0179 7.74251 37.7559 7.68066 37.4043 7.68066H36.3057V9.21875ZM36.3057 6.91406H37.3213C37.637 6.91406 37.8714 6.85221 38.0244 6.72852C38.1774 6.60482 38.2539 6.42741 38.2539 6.19629V6.18652C38.2539 5.97493 38.1872 5.80404 38.0537 5.67383C37.9235 5.54362 37.7168 5.47852 37.4336 5.47852H36.3057V6.91406ZM42.375 10.0879C42.0397 10.0879 41.7386 10.0244 41.4717 9.89746C41.208 9.76725 40.9997 9.58333 40.8467 9.3457C40.6937 9.10807 40.6172 8.82975 40.6172 8.51074V8.50098C40.6172 8.18197 40.6937 7.91016 40.8467 7.68555C41.0029 7.46094 41.2275 7.28516 41.5205 7.1582C41.8167 7.02799 42.1748 6.94987 42.5947 6.92383L44.5527 6.80664V7.55371L42.7412 7.6709C42.3766 7.69368 42.1081 7.77181 41.9355 7.90527C41.763 8.03548 41.6768 8.2194 41.6768 8.45703V8.4668C41.6768 8.70768 41.7695 8.89811 41.9551 9.03809C42.1406 9.1748 42.375 9.24316 42.6582 9.24316C42.9219 9.24316 43.1562 9.19108 43.3613 9.08691C43.5697 8.97949 43.7324 8.83626 43.8496 8.65723C43.9668 8.47493 44.0254 8.26986 44.0254 8.04199V6.37207C44.0254 6.0791 43.9342 5.85612 43.752 5.70312C43.5729 5.54688 43.306 5.46875 42.9512 5.46875C42.6549 5.46875 42.4124 5.52083 42.2236 5.625C42.0381 5.72917 41.9144 5.87565 41.8525 6.06445L41.8428 6.0791H40.8223L40.8271 6.04492C40.8695 5.75195 40.985 5.49805 41.1738 5.2832C41.3659 5.0651 41.6165 4.89583 41.9258 4.77539C42.2383 4.65495 42.5947 4.59473 42.9951 4.59473C43.4411 4.59473 43.8187 4.66634 44.1279 4.80957C44.4404 4.94954 44.6764 5.15299 44.8359 5.41992C44.9987 5.68359 45.0801 6.00098 45.0801 6.37207V10H44.0254V9.24805H43.9473C43.8431 9.42708 43.7129 9.58008 43.5566 9.70703C43.4004 9.83073 43.223 9.92513 43.0244 9.99023C42.8258 10.0553 42.6094 10.0879 42.375 10.0879ZM48.0879 7.79297C48.0521 8.29427 47.974 8.71257 47.8535 9.04785C47.7331 9.38314 47.5638 9.63379 47.3457 9.7998C47.1276 9.96582 46.8525 10.0488 46.5205 10.0488C46.4163 10.0488 46.3285 10.0423 46.2568 10.0293C46.1852 10.0163 46.1299 10.0033 46.0908 9.99023V9.0625C46.1169 9.06901 46.1592 9.07715 46.2178 9.08691C46.2764 9.09342 46.3382 9.09668 46.4033 9.09668C46.5693 9.09668 46.7012 9.03483 46.7988 8.91113C46.8997 8.78743 46.9746 8.62142 47.0234 8.41309C47.0755 8.2015 47.1081 7.96712 47.1211 7.70996L47.3262 4.69727H50.9932V10H49.9287V5.53711H48.2539L48.0879 7.79297ZM52.6045 10V4.69727H53.6689V6.33789H54.709C55.3242 6.33789 55.8141 6.50391 56.1787 6.83594C56.5433 7.16471 56.7256 7.60742 56.7256 8.16406V8.17383C56.7256 8.73047 56.5433 9.1748 56.1787 9.50684C55.8141 9.83561 55.3242 10 54.709 10H52.6045ZM54.6211 7.17773H53.6689V9.16016H54.6211C54.9401 9.16016 55.1924 9.07064 55.3779 8.8916C55.5635 8.70931 55.6562 8.47005 55.6562 8.17383V8.16406C55.6562 7.86458 55.5618 7.62533 55.373 7.44629C55.1875 7.26725 54.9368 7.17773 54.6211 7.17773Z" fill="url(#paint0_linear_51_2717)"/>
</g>
<defs>
<linearGradient id="paint0_linear_51_2717" x1="3" y1="6.5" x2="64" y2="6.5" gradientUnits="userSpaceOnUse">
<stop stop-color="#EF5A24"/>
<stop offset="0.567308" stop-color="#EF5A24"/>
<stop offset="0.658654" stop-color="#EF5A24" stop-opacity="0"/>
</linearGradient>
<clipPath id="clip0_51_2717">
<rect width="45" height="14" rx="7" fill="white"/>
</clipPath>
</defs>
</svg>
