<svg width="45" height="14" viewBox="0 0 45 14" fill="none" xmlns="http://www.w3.org/2000/svg">
<g clip-path="url(#clip0_51_3035)">
<rect width="50" height="14" rx="7" fill="#92D07A" fill-opacity="0.4"/>
<ellipse cx="7.14642" cy="7.07237" rx="6.14642" ry="6.07237" fill="#92D07A"/>
<line x1="4.89251" y1="9.4461" x2="9.25094" y2="4.25192" stroke="#212123" stroke-width="0.647786"/>
<circle cx="8.77742" cy="8.75741" r="1.05265" stroke="#212123" stroke-width="0.647786"/>
<circle cx="5.37655" cy="5.19466" r="1.05265" stroke="#212123" stroke-width="0.647786"/>
<path d="M16.0264 11H14.9326V3.9541H16.0264V7.01562H16.2803L19.0195 3.9541H20.3184L17.1152 7.46973V7.24512L20.5674 11H19.1807L16.2852 7.875H16.0264V11ZM21.5293 12.7676V5.69727H22.5889V6.53223H22.6719C22.7728 6.33691 22.903 6.1709 23.0625 6.03418C23.2253 5.89746 23.4108 5.79167 23.6191 5.7168C23.8275 5.64193 24.0553 5.60449 24.3027 5.60449C24.7487 5.60449 25.1361 5.71842 25.4648 5.94629C25.7936 6.1709 26.0475 6.48828 26.2266 6.89844C26.4089 7.30534 26.5 7.78711 26.5 8.34375V8.35352C26.5 8.91341 26.4105 9.39844 26.2314 9.80859C26.0524 10.2155 25.7985 10.5312 25.4697 10.7559C25.141 10.9772 24.752 11.0879 24.3027 11.0879C24.0586 11.0879 23.8307 11.0505 23.6191 10.9756C23.4076 10.8975 23.2204 10.79 23.0576 10.6533C22.8949 10.5166 22.7663 10.3522 22.6719 10.1602H22.5889V12.7676H21.5293ZM24 10.1797C24.2962 10.1797 24.5501 10.1064 24.7617 9.95996C24.9733 9.81348 25.1344 9.60352 25.2451 9.33008C25.359 9.05664 25.416 8.73112 25.416 8.35352V8.34375C25.416 7.96289 25.359 7.63574 25.2451 7.3623C25.1344 7.08887 24.9733 6.87891 24.7617 6.73242C24.5501 6.58594 24.2962 6.5127 24 6.5127C23.707 6.5127 23.4531 6.58757 23.2383 6.7373C23.0234 6.88379 22.859 7.09375 22.7451 7.36719C22.6312 7.63737 22.5742 7.96289 22.5742 8.34375V8.35352C22.5742 8.72786 22.6312 9.05176 22.7451 9.3252C22.859 9.59863 23.0234 9.81022 23.2383 9.95996C23.4531 10.1064 23.707 10.1797 24 10.1797ZM30.0938 11.1025C29.5762 11.1025 29.1318 10.9919 28.7607 10.7705C28.3896 10.5459 28.1032 10.2285 27.9014 9.81836C27.7028 9.4082 27.6035 8.92318 27.6035 8.36328V8.3584C27.6035 7.80501 27.7028 7.32161 27.9014 6.9082C28.1032 6.49479 28.3864 6.17253 28.751 5.94141C29.1188 5.71029 29.5485 5.59473 30.04 5.59473C30.5348 5.59473 30.9596 5.7054 31.3145 5.92676C31.6725 6.14811 31.9476 6.45898 32.1396 6.85938C32.3317 7.25651 32.4277 7.72201 32.4277 8.25586V8.62695H28.1406V7.87012H31.9004L31.3926 8.57324V8.14844C31.3926 7.77083 31.334 7.45833 31.2168 7.21094C31.1029 6.96029 30.945 6.77311 30.7432 6.64941C30.5413 6.52572 30.3086 6.46387 30.0449 6.46387C29.7812 6.46387 29.5452 6.52897 29.3369 6.65918C29.1318 6.78613 28.9691 6.97493 28.8486 7.22559C28.7314 7.47624 28.6729 7.78385 28.6729 8.14844V8.57324C28.6729 8.92155 28.7314 9.2194 28.8486 9.4668C28.9658 9.71419 29.1318 9.90299 29.3467 10.0332C29.5648 10.1634 29.8219 10.2285 30.1182 10.2285C30.346 10.2285 30.5413 10.1976 30.7041 10.1357C30.8701 10.0706 31.0052 9.99089 31.1094 9.89648C31.2168 9.80208 31.29 9.70931 31.3291 9.61816L31.3486 9.5791H32.374L32.3643 9.62305C32.3187 9.79883 32.2389 9.97461 32.125 10.1504C32.0111 10.3229 31.8597 10.4808 31.6709 10.624C31.4854 10.7673 31.2607 10.8828 30.9971 10.9707C30.7367 11.0586 30.4355 11.1025 30.0938 11.1025ZM34.083 12.3916H33.1064V10.1553H33.5361C33.7314 10.0316 33.8763 9.82324 33.9707 9.53027C34.0684 9.2373 34.1286 8.91178 34.1514 8.55371L34.3467 5.69727H38.1797V10.1553H39.0098V12.3916H38.0332V11H34.083V12.3916ZM37.1201 10.1553V6.54199H35.2646L35.1133 8.59766C35.0938 8.90039 35.0498 9.18034 34.9814 9.4375C34.9131 9.69466 34.8187 9.90625 34.6982 10.0723V10.1553H37.1201ZM40.0693 11V5.69727H41.124V9.41797H41.6758L40.958 9.81836L43.6094 5.69727H44.6641V11H43.6094V7.26465H43.0576L43.7754 6.85938L41.124 11H40.0693ZM50.2451 5.69727V6.53711H48.5752V11H47.5156V6.53711H45.8457V5.69727H50.2451ZM57.6133 11V8.67578H55.2158V11H54.1514V5.69727H55.2158V7.83594H57.6133V5.69727H58.6777V11H57.6133ZM61.7539 11.0879C61.4186 11.0879 61.1175 11.0244 60.8506 10.8975C60.5869 10.7673 60.3786 10.5833 60.2256 10.3457C60.0726 10.1081 59.9961 9.82975 59.9961 9.51074V9.50098C59.9961 9.18197 60.0726 8.91016 60.2256 8.68555C60.3818 8.46094 60.6064 8.28516 60.8994 8.1582C61.1956 8.02799 61.5537 7.94987 61.9736 7.92383L63.9316 7.80664V8.55371L62.1201 8.6709C61.7555 8.69368 61.487 8.77181 61.3145 8.90527C61.1419 9.03548 61.0557 9.2194 61.0557 9.45703V9.4668C61.0557 9.70768 61.1484 9.89811 61.334 10.0381C61.5195 10.1748 61.7539 10.2432 62.0371 10.2432C62.3008 10.2432 62.5352 10.1911 62.7402 10.0869C62.9486 9.97949 63.1113 9.83626 63.2285 9.65723C63.3457 9.47493 63.4043 9.26986 63.4043 9.04199V7.37207C63.4043 7.0791 63.3132 6.85612 63.1309 6.70312C62.9518 6.54688 62.6849 6.46875 62.3301 6.46875C62.0339 6.46875 61.7913 6.52083 61.6025 6.625C61.417 6.72917 61.2933 6.87565 61.2314 7.06445L61.2217 7.0791H60.2012L60.2061 7.04492C60.2484 6.75195 60.3639 6.49805 60.5527 6.2832C60.7448 6.0651 60.9954 5.89583 61.3047 5.77539C61.6172 5.65495 61.9736 5.59473 62.374 5.59473C62.82 5.59473 63.1976 5.66634 63.5068 5.80957C63.8193 5.94954 64.0553 6.15299 64.2148 6.41992C64.3776 6.68359 64.459 7.00098 64.459 7.37207V11H63.4043V10.248H63.3262C63.222 10.4271 63.0918 10.5801 62.9355 10.707C62.7793 10.8307 62.6019 10.9251 62.4033 10.9902C62.2048 11.0553 61.9883 11.0879 61.7539 11.0879ZM67.4668 8.79297C67.431 9.29427 67.3529 9.71257 67.2324 10.0479C67.112 10.3831 66.9427 10.6338 66.7246 10.7998C66.5065 10.9658 66.2314 11.0488 65.8994 11.0488C65.7952 11.0488 65.7074 11.0423 65.6357 11.0293C65.5641 11.0163 65.5088 11.0033 65.4697 10.9902V10.0625C65.4958 10.069 65.5381 10.0771 65.5967 10.0869C65.6553 10.0934 65.7171 10.0967 65.7822 10.0967C65.9482 10.0967 66.0801 10.0348 66.1777 9.91113C66.2786 9.78743 66.3535 9.62142 66.4023 9.41309C66.4544 9.2015 66.487 8.96712 66.5 8.70996L66.7051 5.69727H70.3721V11H69.3076V6.53711H67.6328L67.4668 8.79297ZM71.9834 11V5.69727H73.0381V9.41797H73.5898L72.8721 9.81836L75.5234 5.69727H76.5781V11H75.5234V7.26465H74.9717L75.6895 6.85938L73.0381 11H71.9834ZM82.4473 11H81.3877V8.8418H81.3047C81.1647 8.94596 80.9906 9.02734 80.7822 9.08594C80.5739 9.14453 80.3314 9.17383 80.0547 9.17383C79.4199 9.17383 78.9333 8.99805 78.5947 8.64648C78.2594 8.29492 78.0918 7.82943 78.0918 7.25V5.69727H79.1514V7.19141C79.1514 7.52669 79.2376 7.79036 79.4102 7.98242C79.5859 8.17122 79.8447 8.26562 80.1865 8.26562C80.3851 8.26562 80.5609 8.24935 80.7139 8.2168C80.8669 8.18424 81.0003 8.1403 81.1143 8.08496C81.2282 8.02962 81.3193 7.96615 81.3877 7.89453V5.69727H82.4473V11ZM87.5254 11V8.67578H85.1279V11H84.0635V5.69727H85.1279V7.83594H87.5254V5.69727H88.5898V11H87.5254ZM90.2061 11V5.69727H91.2705V7.33789H92.3105C92.9258 7.33789 93.4157 7.50391 93.7803 7.83594C94.1449 8.16471 94.3271 8.60742 94.3271 9.16406V9.17383C94.3271 9.73047 94.1449 10.1748 93.7803 10.5068C93.4157 10.8356 92.9258 11 92.3105 11H90.2061ZM92.2227 8.17773H91.2705V10.1602H92.2227C92.5417 10.1602 92.7939 10.0706 92.9795 9.8916C93.165 9.70931 93.2578 9.47005 93.2578 9.17383V9.16406C93.2578 8.86458 93.1634 8.62533 92.9746 8.44629C92.7891 8.26725 92.5384 8.17773 92.2227 8.17773ZM95.2207 11V5.69727H96.2803V11H95.2207ZM98.9219 11H97.8916V5.69727H99.2246L100.924 9.56445H101.007L102.721 5.69727H104.01V11H102.979V7.31348H102.892L101.339 10.7998H100.562L99.0146 7.31348H98.9219V11ZM105.626 11V5.69727H106.681V9.41797H107.232L106.515 9.81836L109.166 5.69727H110.221V11H109.166V7.26465H108.614L109.332 6.85938L106.681 11H105.626Z" fill="url(#paint0_linear_51_3035)"/>
</g>
<defs>
<linearGradient id="paint0_linear_51_3035" x1="14" y1="7.5" x2="113.4" y2="7.5" gradientUnits="userSpaceOnUse">
<stop stop-color="#92D07A"/>
<stop offset="0.240385" stop-color="#92D07A"/>
<stop offset="0.298077" stop-color="#92D07A" stop-opacity="0"/>
</linearGradient>
<clipPath id="clip0_51_3035">
<rect width="45" height="14" rx="7" fill="white"/>
</clipPath>
</defs>
</svg>
