<svg width="48" height="48" viewBox="0 0 48 48" fill="none" xmlns="http://www.w3.org/2000/svg">
<path d="M0.780288 12.3158C1.65342 6.21531 6.21531 1.65342 12.3158 0.780288C15.4298 0.334589 19.3246 0 24 0C28.6754 0 32.5702 0.334589 35.6842 0.780288C41.7847 1.65342 46.3466 6.21531 47.2197 12.3158C47.6654 15.4298 48 19.3246 48 24C48 28.6754 47.6654 32.5702 47.2197 35.6842C46.3466 41.7847 41.7847 46.3466 35.6842 47.2197C32.5702 47.6654 28.6754 48 24 48C19.3246 48 15.4298 47.6654 12.3158 47.2197C6.21531 46.3466 1.65342 41.7847 0.780288 35.6842C0.334589 32.5702 0 28.6754 0 24C0 19.3246 0.334589 15.4298 0.780288 12.3158Z" fill="#EF3124"/>
<path d="M21.074 12H14V35.75H21.074C21.074 34.4383 22.1373 33.375 23.449 33.375C24.7607 33.375 25.824 34.4383 25.824 35.75H33V12H25.824C25.824 13.3117 24.7607 14.375 23.449 14.375C22.1373 14.375 21.074 13.3117 21.074 12Z" fill="#212123"/>
</svg>
